<svg width="1279" height="86" viewBox="0 0 1279 86" fill="none" xmlns="http://www.w3.org/2000/svg">
<g clip-path="url(#clip0_2_2)">
<g clip-path="url(#clip1_2_2)">
<path d="M1279.31 43.8156C1279.31 47.6725 1279 51.3002 1278.38 54.6987C1277.77 58.0971 1276.96 61.2393 1275.93 64.1253C1274.9 67.0383 1273.71 69.6814 1272.36 72.0549C1271.02 74.4554 1269.63 76.5862 1268.16 78.4473C1266.67 80.3353 1265.17 81.9267 1263.65 83.2213C1262.15 84.5429 1260.73 85.5813 1259.38 86.3365L1257.78 81.7648C1258.93 80.9286 1260.08 79.8498 1261.24 78.5282C1262.41 77.2066 1263.52 75.6826 1264.59 73.9564C1265.59 72.2033 1266.54 70.2209 1267.47 68.0092C1268.42 65.8245 1269.19 63.424 1269.79 60.8077C1270.41 58.3803 1270.89 55.764 1271.21 52.959C1271.56 50.1269 1271.74 47.1062 1271.74 43.8965V43.33C1271.74 39.6889 1271.51 36.3848 1271.05 33.4179C1270.62 30.451 1270.13 27.9292 1269.59 25.8524C1268.79 22.8856 1267.85 20.2287 1266.74 17.8822C1265.63 15.5088 1264.48 13.4454 1263.32 11.6923C1262.42 10.3167 1261.5 9.11644 1260.56 8.09152C1259.61 7.03963 1258.68 6.14955 1257.78 5.42132L1259.38 0.849609C1260.73 1.60482 1262.17 2.64323 1263.69 3.96484C1265.2 5.28646 1266.7 6.87779 1268.16 8.73884C1269.68 10.6539 1271.11 12.7846 1272.43 15.1312C1273.76 17.4777 1274.93 20.1209 1275.93 23.0608C1276.91 25.8929 1277.71 28.9677 1278.33 32.2852C1278.98 35.5757 1279.31 39.2843 1279.31 43.411V43.8156Z" fill="white"/>
<path d="M1216.94 62.4665C1216.94 60.8751 1217.43 59.5131 1218.41 58.3803C1219.38 57.2474 1220.86 56.6811 1222.84 56.6811C1224.79 56.6811 1226.27 57.2474 1227.28 58.3803C1228.3 59.4861 1228.82 60.8482 1228.82 62.4665C1228.82 64.0579 1228.3 65.3929 1227.28 66.4718C1226.25 67.5507 1224.77 68.0901 1222.84 68.0901C1220.88 68.0901 1219.41 67.5507 1218.41 66.4718C1217.43 65.366 1216.94 64.0309 1216.94 62.4665ZM1216.94 27.0257C1216.94 25.4343 1217.43 24.0723 1218.41 22.9394C1219.38 21.8067 1220.86 21.2402 1222.84 21.2402C1224.79 21.2402 1226.27 21.8067 1227.28 22.9394C1228.3 24.0452 1228.82 25.4073 1228.82 27.0257C1228.82 28.617 1228.3 29.9521 1227.28 31.0309C1226.25 32.1098 1224.77 32.6492 1222.84 32.6492C1220.88 32.6492 1219.41 32.1098 1218.41 31.0309C1217.43 29.9251 1216.94 28.5901 1216.94 27.0257Z" fill="white"/>
<path d="M1134.32 40.0934H1109.58V60.9696H1138.42V67.3214H1102.05V8.41518H1138.05V14.8075H1109.58V33.7416H1134.32V40.0934Z" fill="white"/>
<path d="M1060.19 60.9696H1089.16V67.3214H1052.66V8.41518H1060.19V60.9696Z" fill="white"/>
<path d="M1010.15 60.9696H1039.11V67.3214H1002.62V8.41518H1010.15V60.9696Z" fill="white"/>
<path d="M984.191 40.0934H959.455V60.9696H988.3V67.3214H951.928V8.41518H987.933V14.8075H959.455V33.7416H984.191V40.0934Z" fill="white"/>
<path d="M909.78 43.6942V67.3214H902.254V8.41518H921.456C924.114 8.46912 926.623 8.88718 928.983 9.66936C931.369 10.4515 933.459 11.5844 935.248 13.0678C937.038 14.5513 938.448 16.3853 939.479 18.57C940.537 20.7548 941.066 23.2631 941.066 26.0951C941.066 28.9272 940.537 31.4356 939.479 33.6202C938.448 35.778 937.038 37.5986 935.248 39.0821C933.459 40.5655 931.369 41.6983 928.983 42.4804C926.623 43.2626 924.114 43.6673 921.456 43.6942H909.78ZM909.78 37.5446H921.456C923.192 37.5177 924.792 37.2479 926.258 36.7355C927.722 36.196 928.997 35.4409 930.081 34.4698C931.166 33.4989 932.007 32.3256 932.603 30.95C933.227 29.5475 933.54 27.9562 933.54 26.176C933.54 24.3959 933.227 22.7911 932.603 21.3616C932.007 19.9321 931.18 18.7184 930.122 17.7204C929.037 16.7224 927.749 15.9537 926.258 15.4143C924.792 14.8749 923.192 14.5917 921.456 14.5647H909.78V37.5446Z" fill="white"/>
<path d="M859.739 43.6942V67.3214H852.213V8.41518H871.415C874.073 8.46912 876.582 8.88718 878.942 9.66936C881.329 10.4515 883.418 11.5844 885.208 13.0678C886.997 14.5513 888.407 16.3853 889.439 18.57C890.497 20.7548 891.025 23.2631 891.025 26.0951C891.025 28.9272 890.497 31.4356 889.439 33.6202C888.407 35.778 886.997 37.5986 885.208 39.0821C883.418 40.5655 881.329 41.6983 878.942 42.4804C876.582 43.2626 874.073 43.6673 871.415 43.6942H859.739ZM859.739 37.5446H871.415C873.152 37.5177 874.751 37.2479 876.217 36.7355C877.681 36.196 878.956 35.4409 880.041 34.4698C881.125 33.4989 881.967 32.3256 882.563 30.95C883.186 29.5475 883.499 27.9562 883.499 26.176C883.499 24.3959 883.186 22.7911 882.563 21.3616C881.967 19.9321 881.139 18.7184 880.082 17.7204C878.997 16.7224 877.708 15.9537 876.217 15.4143C874.751 14.8749 873.152 14.5917 871.415 14.5647H859.739V37.5446Z" fill="white"/>
<path d="M829.756 52.0689H809.984L805.224 67.3214H797.697L816.818 8.41518H823.124L841.92 67.3214H834.435L829.756 52.0689ZM812.018 45.5553H827.762L819.951 19.9861L812.018 45.5553Z" fill="white"/>
<path d="M788.584 67.3214H781.464V40.0934H757.177V67.3214H750.098V8.41518H757.177V33.7416H781.464V8.41518H788.584V67.3214Z" fill="white"/>
<path d="M739.764 49.601C739.412 52.3251 738.706 54.8335 737.649 57.1261C736.591 59.3918 735.221 61.3338 733.539 62.952C731.831 64.5973 729.81 65.8785 727.477 66.7955C725.173 67.6856 722.596 68.1305 719.747 68.1305C717.307 68.1305 715.083 67.7934 713.076 67.1192C711.096 66.4179 709.332 65.4604 707.787 64.2466C706.214 63.0329 704.857 61.6035 703.719 59.9581C702.606 58.3129 701.685 56.5192 700.952 54.5773C700.192 52.6353 699.623 50.599 699.243 48.4682C698.89 46.3374 698.701 44.1796 698.674 41.995V33.7821C698.701 31.5974 698.89 29.4397 699.243 27.3089C699.623 25.1781 700.192 23.1418 700.952 21.1998C701.685 19.2579 702.606 17.4642 703.719 15.8189C704.857 14.1467 706.214 12.7037 707.787 11.49C709.332 10.2762 711.096 9.33222 713.076 8.65793C715.055 7.95666 717.28 7.60603 719.747 7.60603C722.704 7.60603 725.349 8.06455 727.682 8.98159C730.013 9.87165 732.02 11.1393 733.702 12.7846C735.383 14.4568 736.726 16.4527 737.73 18.7723C738.761 21.0919 739.439 23.6542 739.764 26.4593H732.237C731.993 24.6791 731.573 23.0204 730.977 21.483C730.38 19.9456 729.579 18.597 728.576 17.4372C727.572 16.2774 726.338 15.3739 724.874 14.7266C723.436 14.0523 721.727 13.7151 719.747 13.7151C717.958 13.7151 716.371 14.0118 714.988 14.6052C713.632 15.1716 712.465 15.9537 711.489 16.9517C710.485 17.9497 709.645 19.1094 708.967 20.4311C708.316 21.7527 707.787 23.1553 707.38 24.6387C706.973 26.1222 706.675 27.646 706.485 29.2104C706.323 30.7478 706.241 32.2447 706.241 33.7012V41.995C706.241 43.4514 706.323 44.9619 706.485 46.5263C706.675 48.0636 706.973 49.5741 707.38 51.0575C707.787 52.5679 708.316 53.9839 708.967 55.3055C709.618 56.6272 710.445 57.787 711.449 58.7849C712.452 59.8098 713.632 60.6189 714.988 61.2124C716.344 61.7787 717.931 62.062 719.747 62.062C721.727 62.062 723.436 61.7518 724.874 61.1314C726.338 60.5111 727.572 59.6345 728.576 58.5017C729.579 57.3959 730.38 56.0877 730.977 54.5773C731.573 53.0399 731.993 51.3812 732.237 49.601H739.764Z" fill="white"/>
<path d="M638.421 67.3214H630.773L607.787 23.3036L607.665 67.3214H600.057V8.41518H607.705L630.691 52.3521L630.814 8.41518H638.421V67.3214Z" fill="white"/>
<path d="M579.553 52.0689H559.781L555.02 67.3214H547.494L566.615 8.41518H572.921L591.717 67.3214H584.231L579.553 52.0689ZM561.815 45.5553H577.559L569.748 19.9861L561.815 45.5553Z" fill="white"/>
<path d="M538.34 67.3214H530.692L507.706 23.3036L507.583 67.3214H499.976V8.41518H507.624L530.61 52.3521L530.732 8.41518H538.34V67.3214Z" fill="white"/>
<path d="M479.471 52.0689H459.699L454.938 67.3214H447.413L466.533 8.41518H472.84L491.636 67.3214H484.149L479.471 52.0689ZM461.733 45.5553H477.478L469.666 19.9861L461.733 45.5553Z" fill="white"/>
<path d="M438.259 67.3214H430.61L407.624 23.3036L407.502 67.3214H399.894V8.41518H407.543L430.529 52.3521L430.651 8.41518H438.259V67.3214Z" fill="white"/>
<path d="M388.299 8.41518L388.381 48.3063C388.381 51.0575 387.893 53.6333 386.916 56.0338C385.939 58.4343 384.597 60.5246 382.889 62.3046C381.18 64.1117 379.146 65.5412 376.786 66.5932C374.427 67.6182 371.836 68.1305 369.015 68.1305C366.14 68.1305 363.523 67.6182 361.163 66.5932C358.804 65.5683 356.784 64.1522 355.102 62.3451C353.421 60.565 352.105 58.4747 351.155 56.0742C350.207 53.6468 349.718 51.0575 349.691 48.3063L349.772 8.41518H356.933L357.095 48.3063C357.122 50.0595 357.394 51.7452 357.908 53.3635C358.451 54.9818 359.224 56.4113 360.228 57.6521C361.204 58.8928 362.424 59.8907 363.89 60.6459C365.381 61.4012 367.09 61.7787 369.015 61.7787C370.941 61.7787 372.636 61.4146 374.101 60.6864C375.566 59.9312 376.799 58.9197 377.803 57.6521C378.78 56.4113 379.526 54.9818 380.04 53.3635C380.556 51.7452 380.841 50.0595 380.895 48.3063L381.017 8.41518H388.299Z" fill="white"/>
<path d="M339.438 49.601C339.086 52.3251 338.38 54.8335 337.323 57.1261C336.265 59.3918 334.895 61.3338 333.214 62.952C331.505 64.5973 329.485 65.8785 327.152 66.7955C324.847 67.6856 322.27 68.1305 319.422 68.1305C316.982 68.1305 314.757 67.7934 312.75 67.1192C310.77 66.4179 309.007 65.4604 307.461 64.2466C305.889 63.0329 304.532 61.6035 303.393 59.9581C302.281 58.3129 301.359 56.5192 300.626 54.5773C299.867 52.6353 299.297 50.599 298.918 48.4682C298.565 46.3374 298.375 44.1796 298.348 41.995V33.7821C298.375 31.5974 298.565 29.4397 298.918 27.3089C299.297 25.1781 299.867 23.1418 300.626 21.1998C301.359 19.2579 302.281 17.4642 303.393 15.8189C304.532 14.1467 305.889 12.7037 307.461 11.49C309.007 10.2762 310.77 9.33222 312.75 8.65793C314.73 7.95666 316.955 7.60603 319.422 7.60603C322.379 7.60603 325.023 8.06455 327.355 8.98159C329.688 9.87165 331.695 11.1393 333.377 12.7846C335.058 14.4568 336.4 16.4527 337.404 18.7723C338.436 21.0919 339.114 23.6542 339.438 26.4593H331.913C331.668 24.6791 331.247 23.0204 330.651 21.483C330.055 19.9456 329.254 18.597 328.251 17.4372C327.247 16.2774 326.013 15.3739 324.548 14.7266C323.111 14.0523 321.402 13.7151 319.422 13.7151C317.633 13.7151 316.045 14.0118 314.662 14.6052C313.306 15.1716 312.14 15.9537 311.164 16.9517C310.16 17.9497 309.319 19.1094 308.641 20.4311C307.99 21.7527 307.461 23.1553 307.054 24.6387C306.648 26.1222 306.349 27.646 306.16 29.2104C305.997 30.7478 305.916 32.2447 305.916 33.7012V41.995C305.916 43.4514 305.997 44.9619 306.16 46.5263C306.349 48.0636 306.648 49.5741 307.054 51.0575C307.461 52.5679 307.99 53.9839 308.641 55.3055C309.292 56.6272 310.119 57.787 311.123 58.7849C312.126 59.8098 313.306 60.6189 314.662 61.2124C316.018 61.7787 317.606 62.062 319.422 62.062C321.402 62.062 323.111 61.7518 324.548 61.1314C326.013 60.5111 327.247 59.6345 328.251 58.5017C329.254 57.3959 330.055 56.0877 330.651 54.5773C331.247 53.0399 331.668 51.3812 331.913 49.601H339.438Z" fill="white"/>
<path d="M238.096 67.3214H230.448L207.461 23.3036L207.339 67.3214H199.731V8.41518H207.38L230.367 52.3521L230.489 8.41518H238.096V67.3214Z" fill="white"/>
<path d="M150.953 8.41518H186.753V14.9289H172.555V60.8482H186.753V67.3214H150.953V60.8482H164.825V14.9289H150.953V8.41518Z" fill="white"/>
<path d="M115.435 67.3214L96.7209 8.41518H104.777L117.795 52.3925L118.649 55.2651L119.544 52.3116L132.644 8.41518H140.659L121.985 67.3214H115.435Z" fill="white"/>
<path d="M83.4581 40.0934H58.7225V60.9696H87.5671V67.3214H51.196V8.41518H87.201V14.8075H58.7225V33.7416H83.4581V40.0934Z" fill="white"/>
<path d="M15.0285 39.9721L8.43775 47.4162V67.3214H0.748575V8.41518H8.43775V37.1805L14.1741 30.0599L31.546 8.41518H40.6997L19.9918 34.1866L42.0829 67.3214H32.9292L15.0285 39.9721Z" fill="white"/>
</g>
</g>
<defs>
<clipPath id="clip0_2_2">
<rect width="1279" height="86" fill="white"/>
</clipPath>
<clipPath id="clip1_2_2">
<rect width="1280" height="87" fill="white"/>
</clipPath>
</defs>
</svg>
