<svg width="1229" height="84" viewBox="0 0 1229 84" fill="none" xmlns="http://www.w3.org/2000/svg">
<path d="M1228.34 42.3047C1228.34 46.0286 1228.04 49.5312 1227.44 52.8125C1226.86 56.0938 1226.08 59.1276 1225.09 61.9141C1224.1 64.7266 1222.96 67.2786 1221.66 69.5703C1220.38 71.888 1219.04 73.9453 1217.63 75.7422C1216.2 77.5651 1214.76 79.1016 1213.3 80.3516C1211.86 81.6276 1210.5 82.6302 1209.2 83.3594L1207.67 78.9453C1208.77 78.138 1209.87 77.0964 1210.99 75.8203C1212.11 74.5443 1213.18 73.0729 1214.2 71.4062C1215.16 69.7135 1216.08 67.7995 1216.97 65.6641C1217.88 63.5547 1218.62 61.237 1219.2 58.7109C1219.79 56.3672 1220.25 53.8411 1220.56 51.1328C1220.9 48.3984 1221.07 45.4818 1221.07 42.3828V41.8359C1221.07 38.3203 1220.85 35.1302 1220.41 32.2656C1219.99 29.401 1219.52 26.9661 1219 24.9609C1218.24 22.0964 1217.33 19.5312 1216.27 17.2656C1215.2 14.974 1214.1 12.9818 1212.98 11.2891C1212.12 9.96094 1211.24 8.80208 1210.33 7.8125C1209.42 6.79688 1208.53 5.9375 1207.67 5.23438L1209.2 0.820312C1210.5 1.54948 1211.88 2.55208 1213.34 3.82812C1214.79 5.10417 1216.23 6.64062 1217.63 8.4375C1219.09 10.2865 1220.46 12.3438 1221.73 14.6094C1223.01 16.875 1224.13 19.4271 1225.09 22.2656C1226.03 25 1226.8 27.9688 1227.4 31.1719C1228.02 34.349 1228.34 37.9297 1228.34 41.9141V42.3047Z" fill="black"/>
<path d="M1168.45 60.3125C1168.45 58.776 1168.92 57.4609 1169.86 56.3672C1170.8 55.2734 1172.22 54.7266 1174.12 54.7266C1175.99 54.7266 1177.41 55.2734 1178.38 56.3672C1179.36 57.4349 1179.86 58.75 1179.86 60.3125C1179.86 61.849 1179.36 63.138 1178.38 64.1797C1177.39 65.2214 1175.97 65.7422 1174.12 65.7422C1172.24 65.7422 1170.82 65.2214 1169.86 64.1797C1168.92 63.112 1168.45 61.8229 1168.45 60.3125ZM1168.45 26.0938C1168.45 24.5573 1168.92 23.2422 1169.86 22.1484C1170.8 21.0547 1172.22 20.5078 1174.12 20.5078C1175.99 20.5078 1177.41 21.0547 1178.38 22.1484C1179.36 23.2161 1179.86 24.5312 1179.86 26.0938C1179.86 27.6302 1179.36 28.9193 1178.38 29.9609C1177.39 31.0026 1175.97 31.5234 1174.12 31.5234C1172.24 31.5234 1170.82 31.0026 1169.86 29.9609C1168.92 28.8932 1168.45 27.6042 1168.45 26.0938Z" fill="black"/>
<path d="M1089.12 38.7109H1065.37V58.8672H1093.06V65H1058.14V8.125H1092.71V14.2969H1065.37V32.5781H1089.12V38.7109Z" fill="black"/>
<path d="M1017.95 58.8672H1045.76V65H1010.72V8.125H1017.95V58.8672Z" fill="black"/>
<path d="M969.898 58.8672H997.711V65H962.672V8.125H969.898V58.8672Z" fill="black"/>
<path d="M944.977 38.7109H921.227V58.8672H948.922V65H914V8.125H948.57V14.2969H921.227V32.5781H944.977V38.7109Z" fill="black"/>
<path d="M873.531 42.1875V65H866.305V8.125H884.742C887.294 8.17708 889.703 8.58073 891.969 9.33594C894.26 10.0911 896.266 11.1849 897.984 12.6172C899.703 14.0495 901.057 15.8203 902.047 17.9297C903.062 20.0391 903.57 22.4609 903.57 25.1953C903.57 27.9297 903.062 30.3516 902.047 32.4609C901.057 34.5443 899.703 36.3021 897.984 37.7344C896.266 39.1667 894.26 40.2604 891.969 41.0156C889.703 41.7708 887.294 42.1615 884.742 42.1875H873.531ZM873.531 36.25H884.742C886.409 36.224 887.945 35.9635 889.352 35.4688C890.758 34.9479 891.982 34.2188 893.023 33.2812C894.065 32.3438 894.872 31.2109 895.445 29.8828C896.044 28.5286 896.344 26.9922 896.344 25.2734C896.344 23.5547 896.044 22.0052 895.445 20.625C894.872 19.2448 894.078 18.0729 893.062 17.1094C892.021 16.1458 890.784 15.4036 889.352 14.8828C887.945 14.362 886.409 14.0885 884.742 14.0625H873.531V36.25Z" fill="black"/>
<path d="M825.484 42.1875V65H818.258V8.125H836.695C839.247 8.17708 841.656 8.58073 843.922 9.33594C846.214 10.0911 848.219 11.1849 849.938 12.6172C851.656 14.0495 853.01 15.8203 854 17.9297C855.016 20.0391 855.523 22.4609 855.523 25.1953C855.523 27.9297 855.016 30.3516 854 32.4609C853.01 34.5443 851.656 36.3021 849.938 37.7344C848.219 39.1667 846.214 40.2604 843.922 41.0156C841.656 41.7708 839.247 42.1615 836.695 42.1875H825.484ZM825.484 36.25H836.695C838.362 36.224 839.898 35.9635 841.305 35.4688C842.711 34.9479 843.935 34.2188 844.977 33.2812C846.018 32.3438 846.826 31.2109 847.398 29.8828C847.997 28.5286 848.297 26.9922 848.297 25.2734C848.297 23.5547 847.997 22.0052 847.398 20.625C846.826 19.2448 846.031 18.0729 845.016 17.1094C843.974 16.1458 842.737 15.4036 841.305 14.8828C839.898 14.362 838.362 14.0885 836.695 14.0625H825.484V36.25Z" fill="black"/>
<path d="M796.695 50.2734H777.711L773.141 65H765.914L784.273 8.125H790.328L808.375 65H801.188L796.695 50.2734ZM779.664 43.9844H794.781L787.281 19.2969L779.664 43.9844Z" fill="black"/>
<path d="M757.164 65H750.328V38.7109H727.008V65H720.211V8.125H727.008V32.5781H750.328V8.125H757.164V65Z" fill="black"/>
<path d="M710.289 47.8906C709.951 50.5208 709.273 52.9427 708.258 55.1562C707.242 57.3438 705.927 59.2188 704.312 60.7812C702.672 62.3698 700.732 63.6068 698.492 64.4922C696.279 65.3516 693.805 65.7812 691.07 65.7812C688.727 65.7812 686.591 65.4557 684.664 64.8047C682.763 64.1276 681.07 63.2031 679.586 62.0312C678.076 60.8594 676.773 59.4792 675.68 57.8906C674.612 56.3021 673.727 54.5703 673.023 52.6953C672.294 50.8203 671.747 48.8542 671.383 46.7969C671.044 44.7396 670.862 42.6562 670.836 40.5469V32.6172C670.862 30.5078 671.044 28.4245 671.383 26.3672C671.747 24.3099 672.294 22.3438 673.023 20.4688C673.727 18.5938 674.612 16.862 675.68 15.2734C676.773 13.6589 678.076 12.2656 679.586 11.0938C681.07 9.92188 682.763 9.01042 684.664 8.35938C686.565 7.68229 688.701 7.34375 691.07 7.34375C693.909 7.34375 696.448 7.78646 698.688 8.67188C700.927 9.53125 702.854 10.7552 704.469 12.3438C706.083 13.9583 707.372 15.8854 708.336 18.125C709.326 20.3646 709.977 22.8385 710.289 25.5469H703.062C702.828 23.8281 702.424 22.2266 701.852 20.7422C701.279 19.2578 700.51 17.9557 699.547 16.8359C698.583 15.7161 697.398 14.8438 695.992 14.2188C694.612 13.5677 692.971 13.2422 691.07 13.2422C689.352 13.2422 687.828 13.5286 686.5 14.1016C685.198 14.6484 684.078 15.4036 683.141 16.3672C682.177 17.3307 681.37 18.4505 680.719 19.7266C680.094 21.0026 679.586 22.3568 679.195 23.7891C678.805 25.2214 678.518 26.6927 678.336 28.2031C678.18 29.6875 678.102 31.1328 678.102 32.5391V40.5469C678.102 41.9531 678.18 43.4115 678.336 44.9219C678.518 46.4062 678.805 47.8646 679.195 49.2969C679.586 50.7552 680.094 52.1224 680.719 53.3984C681.344 54.6745 682.138 55.7943 683.102 56.7578C684.065 57.7474 685.198 58.5286 686.5 59.1016C687.802 59.6484 689.326 59.9219 691.07 59.9219C692.971 59.9219 694.612 59.6224 695.992 59.0234C697.398 58.4245 698.583 57.5781 699.547 56.4844C700.51 55.4167 701.279 54.1536 701.852 52.6953C702.424 51.2109 702.828 49.6094 703.062 47.8906H710.289Z" fill="black"/>
<path d="M612.984 65H605.641L583.57 22.5L583.453 65H576.148V8.125H583.492L605.562 50.5469L605.68 8.125H612.984V65Z" fill="black"/>
<path d="M556.461 50.2734H537.477L532.906 65H525.68L544.039 8.125H550.094L568.141 65H560.953L556.461 50.2734ZM539.43 43.9844H554.547L547.047 19.2969L539.43 43.9844Z" fill="black"/>
<path d="M516.891 65H509.547L487.477 22.5L487.359 65H480.055V8.125H487.398L509.469 50.5469L509.586 8.125H516.891V65Z" fill="black"/>
<path d="M460.367 50.2734H441.383L436.812 65H429.586L447.945 8.125H454L472.047 65H464.859L460.367 50.2734ZM443.336 43.9844H458.453L450.953 19.2969L443.336 43.9844Z" fill="black"/>
<path d="M420.797 65H413.453L391.383 22.5L391.266 65H383.961V8.125H391.305L413.375 50.5469L413.492 8.125H420.797V65Z" fill="black"/>
<path d="M372.828 8.125L372.906 46.6406C372.906 49.2969 372.438 51.7839 371.5 54.1016C370.562 56.4193 369.273 58.4375 367.633 60.1562C365.992 61.901 364.039 63.2812 361.773 64.2969C359.508 65.2865 357.021 65.7812 354.312 65.7812C351.552 65.7812 349.039 65.2865 346.773 64.2969C344.508 63.3073 342.568 61.9401 340.953 60.1953C339.339 58.4766 338.076 56.4583 337.164 54.1406C336.253 51.7969 335.784 49.2969 335.758 46.6406L335.836 8.125H342.711L342.867 46.6406C342.893 48.3333 343.154 49.9609 343.648 51.5234C344.169 53.0859 344.911 54.4661 345.875 55.6641C346.812 56.862 347.984 57.8255 349.391 58.5547C350.823 59.2839 352.464 59.6484 354.312 59.6484C356.161 59.6484 357.789 59.2969 359.195 58.5938C360.602 57.8646 361.786 56.888 362.75 55.6641C363.688 54.4661 364.404 53.0859 364.898 51.5234C365.393 49.9609 365.667 48.3333 365.719 46.6406L365.836 8.125H372.828Z" fill="black"/>
<path d="M325.914 47.8906C325.576 50.5208 324.898 52.9427 323.883 55.1562C322.867 57.3438 321.552 59.2188 319.938 60.7812C318.297 62.3698 316.357 63.6068 314.117 64.4922C311.904 65.3516 309.43 65.7812 306.695 65.7812C304.352 65.7812 302.216 65.4557 300.289 64.8047C298.388 64.1276 296.695 63.2031 295.211 62.0312C293.701 60.8594 292.398 59.4792 291.305 57.8906C290.237 56.3021 289.352 54.5703 288.648 52.6953C287.919 50.8203 287.372 48.8542 287.008 46.7969C286.669 44.7396 286.487 42.6562 286.461 40.5469V32.6172C286.487 30.5078 286.669 28.4245 287.008 26.3672C287.372 24.3099 287.919 22.3438 288.648 20.4688C289.352 18.5938 290.237 16.862 291.305 15.2734C292.398 13.6589 293.701 12.2656 295.211 11.0938C296.695 9.92188 298.388 9.01042 300.289 8.35938C302.19 7.68229 304.326 7.34375 306.695 7.34375C309.534 7.34375 312.073 7.78646 314.312 8.67188C316.552 9.53125 318.479 10.7552 320.094 12.3438C321.708 13.9583 322.997 15.8854 323.961 18.125C324.951 20.3646 325.602 22.8385 325.914 25.5469H318.688C318.453 23.8281 318.049 22.2266 317.477 20.7422C316.904 19.2578 316.135 17.9557 315.172 16.8359C314.208 15.7161 313.023 14.8438 311.617 14.2188C310.237 13.5677 308.596 13.2422 306.695 13.2422C304.977 13.2422 303.453 13.5286 302.125 14.1016C300.823 14.6484 299.703 15.4036 298.766 16.3672C297.802 17.3307 296.995 18.4505 296.344 19.7266C295.719 21.0026 295.211 22.3568 294.82 23.7891C294.43 25.2214 294.143 26.6927 293.961 28.2031C293.805 29.6875 293.727 31.1328 293.727 32.5391V40.5469C293.727 41.9531 293.805 43.4115 293.961 44.9219C294.143 46.4062 294.43 47.8646 294.82 49.2969C295.211 50.7552 295.719 52.1224 296.344 53.3984C296.969 54.6745 297.763 55.7943 298.727 56.7578C299.69 57.7474 300.823 58.5286 302.125 59.1016C303.427 59.6484 304.951 59.9219 306.695 59.9219C308.596 59.9219 310.237 59.6224 311.617 59.0234C313.023 58.4245 314.208 57.5781 315.172 56.4844C316.135 55.4167 316.904 54.1536 317.477 52.6953C318.049 51.2109 318.453 49.6094 318.688 47.8906H325.914Z" fill="black"/>
<path d="M228.609 65H221.266L199.195 22.5L199.078 65H191.773V8.125H199.117L221.188 50.5469L221.305 8.125H228.609V65Z" fill="black"/>
<path d="M144.938 8.125H179.312V14.4141H165.68V58.75H179.312V65H144.938V58.75H158.258V14.4141H144.938V8.125Z" fill="black"/>
<path d="M110.836 65L92.8672 8.125H100.602L113.102 50.5859L113.922 53.3594L114.781 50.5078L127.359 8.125H135.055L117.125 65H110.836Z" fill="black"/>
<path d="M80.1328 38.7109H56.3828V58.8672H84.0781V65H49.1562V8.125H83.7266V14.2969H56.3828V32.5781H80.1328V38.7109Z" fill="black"/>
<path d="M14.4297 38.5938L8.10156 45.7812V65H0.71875V8.125H8.10156V35.8984L13.6094 29.0234L30.2891 8.125H39.0781L19.1953 33.0078L40.4062 65H31.6172L14.4297 38.5938Z" fill="black"/>
</svg>
