<?xml version="1.0" encoding="UTF-8" standalone="no"?>
<svg
   width="1259.1914"
   height="60.524471"
   viewBox="0 0 1259.1914 60.524471"
   fill="none"
   version="1.1"
   id="svg23"
   sodipodi:docname="title_white.svg"
   inkscape:version="1.4.2 (ebf0e940, 2025-05-08)"
   xmlns:inkscape="http://www.inkscape.org/namespaces/inkscape"
   xmlns:sodipodi="http://sodipodi.sourceforge.net/DTD/sodipodi-0.dtd"
   xmlns="http://www.w3.org/2000/svg"
   xmlns:svg="http://www.w3.org/2000/svg">
  <defs
     id="defs23" />
  <sodipodi:namedview
     id="namedview23"
     pagecolor="#ffffff"
     bordercolor="#000000"
     borderopacity="0"
     inkscape:showpageshadow="2"
     inkscape:pageopacity="0.0"
     inkscape:pagecheckerboard="0"
     inkscape:deskcolor="#d1d1d1"
     inkscape:zoom="0.29885057"
     inkscape:cx="640.78846"
     inkscape:cy="36.807692"
     inkscape:window-width="920"
     inkscape:window-height="613"
     inkscape:window-x="0"
     inkscape:window-y="25"
     inkscape:window-maximized="0"
     inkscape:current-layer="svg23" />
  <path
     d="m 1259.1914,29.89717 c 0,2.6619 -0.22,5.1656 -0.66,7.5111 -0.42,2.3455 -0.98,4.5141 -1.7,6.5059 -0.72,2.0104 -1.55,3.8346 -2.49,5.4728 -0.93,1.6567 -1.9,3.1273 -2.92,4.4117 -1.04,1.3031 -2.09,2.4014 -3.15,3.2949 -1.04,0.9121 -2.03,1.6288 -2.97,2.15 l -1.11,-3.1552 c 0.8,-0.5771 1.59,-1.3217 2.41,-2.2338 0.81,-0.9121 1.59,-1.9639 2.33,-3.1553 0.69,-1.21 1.36,-2.5781 2.01,-4.1045 0.66,-1.5078 1.19,-3.1646 1.61,-4.9703 0.43,-1.6753 0.77,-3.4809 0.99,-5.4169 0.25,-1.9546 0.37,-4.0394 0.37,-6.2546 v -0.3909 c 0,-2.513 -0.16,-4.7933 -0.48,-6.841 -0.3,-2.0476 -0.64,-3.7881 -1.02,-5.2215 -0.55,-2.0476 -1.21,-3.8812 -1.98,-5.5007 -0.78,-1.6381 -1.58,-3.0621 -2.39,-4.2721 -0.62,-0.9494 -1.26,-1.7777 -1.92,-2.4851 -0.66,-0.726 -1.31,-1.3403 -1.93,-1.8429 l 1.11,-3.15519 c 0.94,0.52122 1.94,1.23789 3,2.15002 1.05,0.91217 2.1,2.01037 3.12,3.29487 1.05,1.3217 2.05,2.7922 2.97,4.4117 0.93,1.6195 1.74,3.4438 2.44,5.4728 0.68,1.9546 1.24,4.0767 1.68,6.3663 0.45,2.271 0.68,4.8306 0.68,7.6787 z"
     fill="#ffffff"
     id="path1" />
  <path
     d="m 1216.1914,42.40247 c 0,-1.087 0.33,-2.0173 0.99,-2.791 0.65,-0.7738 1.65,-1.1606 2.98,-1.1606 1.31,0 2.31,0.3868 2.99,1.1606 0.69,0.7553 1.04,1.6856 1.04,2.791 0,1.087 -0.35,1.9988 -1.04,2.7358 -0.69,0.7369 -1.69,1.1053 -2.99,1.1053 -1.32,0 -2.31,-0.3684 -2.98,-1.1053 -0.66,-0.7554 -0.99,-1.6673 -0.99,-2.7358 z m 0,-24.2072 c 0,-1.087 0.33,-2.0173 0.99,-2.7911 0.65,-0.7737 1.65,-1.1606 2.98,-1.1606 1.31,0 2.31,0.3869 2.99,1.1606 0.69,0.7553 1.04,1.6857 1.04,2.7911 0,1.0869 -0.35,1.9988 -1.04,2.7357 -0.69,0.7369 -1.69,1.1053 -2.99,1.1053 -1.32,0 -2.31,-0.3684 -2.98,-1.1053 -0.66,-0.7553 -0.99,-1.6672 -0.99,-2.7357 z"
     fill="#ffffff"
     id="path2" />
  <path
     d="m 1133.5714,32.48737 h -24.74 v 20.8762 h 28.84 v 6.3518 h -36.37 V 0.80915 h 36 v 6.39232 h -28.47 v 18.9341 h 24.74 z"
     fill="#ffffff"
     id="path3" />
  <path
     d="m 1059.4414,53.36357 h 28.97 v 6.3518 h -36.5 V 0.80915 h 7.53 z"
     fill="#ffffff"
     id="path4" />
  <path
     d="m 1009.4014,53.36357 h 28.96 v 6.3518 h -36.49 V 0.80915 h 7.53 z"
     fill="#ffffff"
     id="path5" />
  <path
     d="m 983.44242,32.48737 h -24.736 v 20.8762 h 28.845 v 6.3518 h -36.372 V 0.80915 h 36.005 v 6.39232 h -28.478 v 18.9341 h 24.736 z"
     fill="#ffffff"
     id="path6" />
  <path
     d="m 909.03142,36.08817 v 23.6272 h -7.526 V 0.80915 h 19.202 c 2.658,0.05394 5.167,0.472 7.527,1.25419 2.386,0.78213 4.476,1.91503 6.265,3.39843 1.79,1.4835 3.2,3.3175 4.231,5.5022 1.058,2.1848 1.587,4.6931 1.587,7.5251 0,2.8321 -0.529,5.3405 -1.587,7.5251 -1.031,2.1578 -2.441,3.9784 -4.231,5.4619 -1.789,1.4834 -3.879,2.6162 -6.265,3.3983 -2.36,0.7822 -4.869,1.1869 -7.527,1.2138 z m 0,-6.1496 h 11.676 c 1.736,-0.0269 3.336,-0.2967 4.802,-0.8091 1.464,-0.5395 2.739,-1.2946 3.823,-2.2657 1.085,-0.9709 1.926,-2.1442 2.522,-3.5198 0.624,-1.4025 0.937,-2.9938 0.937,-4.774 0,-1.7801 -0.313,-3.3849 -0.937,-4.8144 -0.596,-1.4295 -1.423,-2.6432 -2.481,-3.6412 -1.085,-0.998 -2.373,-1.7667 -3.864,-2.3061 -1.466,-0.5394 -3.066,-0.8226 -4.802,-0.8496 h -11.676 z"
     fill="#ffffff"
     id="path7" />
  <path
     d="m 858.99042,36.08817 v 23.6272 h -7.526 V 0.80915 h 19.202 c 2.658,0.05394 5.167,0.472 7.527,1.25419 2.387,0.78213 4.476,1.91503 6.266,3.39843 1.789,1.4835 3.199,3.3175 4.231,5.5022 1.058,2.1848 1.586,4.6931 1.586,7.5251 0,2.8321 -0.528,5.3405 -1.586,7.5251 -1.032,2.1578 -2.442,3.9784 -4.231,5.4619 -1.79,1.4834 -3.879,2.6162 -6.266,3.3983 -2.36,0.7822 -4.869,1.1869 -7.527,1.2138 z m 0,-6.1496 h 11.676 c 1.737,-0.0269 3.336,-0.2967 4.802,-0.8091 1.464,-0.5395 2.739,-1.2946 3.824,-2.2657 1.084,-0.9709 1.926,-2.1442 2.522,-3.5198 0.623,-1.4025 0.936,-2.9938 0.936,-4.774 0,-1.7801 -0.313,-3.3849 -0.936,-4.8144 -0.596,-1.4295 -1.424,-2.6432 -2.481,-3.6412 -1.085,-0.998 -2.374,-1.7667 -3.865,-2.3061 -1.466,-0.5394 -3.065,-0.8226 -4.802,-0.8496 h -11.676 z"
     fill="#ffffff"
     id="path8" />
  <path
     d="m 829.00742,44.46287 h -19.772 l -4.76,15.2525 h -7.527 l 19.121,-58.90622 h 6.306 l 18.796,58.90622 h -7.485 z m -17.738,-6.5136 h 15.744 l -7.811,-25.5692 z"
     fill="#ffffff"
     id="path9" />
  <path
     d="m 787.83542,59.71537 h -7.12 v -27.228 h -24.287 v 27.228 h -7.079 V 0.80915 h 7.079 v 25.32642 h 24.287 V 0.80915 h 7.12 z"
     fill="#ffffff"
     id="path10" />
  <path
     d="m 739.01542,41.99497 c -0.352,2.7241 -1.058,5.2325 -2.115,7.5251 -1.058,2.2657 -2.428,4.2077 -4.11,5.8259 -1.708,1.6453 -3.729,2.9265 -6.062,3.8435 -2.304,0.8901 -4.881,1.335 -7.73,1.335 -2.44,0 -4.664,-0.3371 -6.671,-1.0113 -1.98,-0.7013 -3.744,-1.6588 -5.289,-2.8726 -1.573,-1.2137 -2.93,-2.6431 -4.068,-4.2885 -1.113,-1.6452 -2.034,-3.4389 -2.767,-5.3808 -0.76,-1.942 -1.329,-3.9783 -1.709,-6.1091 -0.353,-2.1308 -0.542,-4.2886 -0.569,-6.4732 v -8.2129 c 0.027,-2.1847 0.216,-4.3424 0.569,-6.4732 0.38,-2.1308 0.949,-4.1671 1.709,-6.1091 0.733,-1.9419 1.654,-3.7356 2.767,-5.3809 1.138,-1.6722 2.495,-3.1152 4.068,-4.3289 1.545,-1.2138 3.309,-2.15778 5.289,-2.83207 1.979,-0.70127 4.204,-1.0519 6.671,-1.0519 2.957,0 5.602,0.45852 7.935,1.37556 2.331,0.89006 4.338,2.15771 6.02,3.80301 1.681,1.6722 3.024,3.6681 4.028,5.9877 1.031,2.3196 1.709,4.8819 2.034,7.687 h -7.527 c -0.244,-1.7802 -0.664,-3.4389 -1.26,-4.9763 -0.597,-1.5374 -1.398,-2.886 -2.401,-4.0458 -1.004,-1.1598 -2.238,-2.0633 -3.702,-2.7106 -1.438,-0.6743 -3.147,-1.0115 -5.127,-1.0115 -1.789,0 -3.376,0.2967 -4.759,0.8901 -1.356,0.5664 -2.523,1.3485 -3.499,2.3465 -1.004,0.998 -1.844,2.1577 -2.522,3.4794 -0.651,1.3216 -1.18,2.7242 -1.587,4.2076 -0.407,1.4835 -0.705,3.0073 -0.895,4.5717 -0.162,1.5374 -0.244,3.0343 -0.244,4.4908 v 8.2938 c 0,1.4564 0.082,2.9669 0.244,4.5313 0.19,1.5373 0.488,3.0478 0.895,4.5312 0.407,1.5104 0.936,2.9264 1.587,4.248 0.651,1.3217 1.478,2.4815 2.482,3.4794 1.003,1.0249 2.183,1.834 3.539,2.4275 1.356,0.5663 2.943,0.8496 4.759,0.8496 1.98,0 3.689,-0.3102 5.127,-0.9306 1.464,-0.6203 2.698,-1.4969 3.702,-2.6297 1.003,-1.1058 1.804,-2.414 2.401,-3.9244 0.596,-1.5374 1.016,-3.1961 1.26,-4.9763 z"
     fill="#ffffff"
     id="path11" />
  <path
     d="m 637.67242,59.71537 h -7.648 l -22.986,-44.0178 -0.122,44.0178 h -7.608 V 0.80915 h 7.648 l 22.986,43.93692 0.123,-43.93692 h 7.607 z"
     fill="#ffffff"
     id="path12" />
  <path
     d="m 578.80442,44.46287 h -19.772 l -4.761,15.2525 h -7.526 l 19.121,-58.90622 h 6.306 l 18.796,58.90622 h -7.486 z m -17.738,-6.5136 h 15.744 l -7.811,-25.5692 z"
     fill="#ffffff"
     id="path13" />
  <path
     d="m 537.59142,59.71537 h -7.648 l -22.986,-44.0178 -0.123,44.0178 h -7.607 V 0.80915 h 7.648 l 22.986,43.93692 0.122,-43.93692 h 7.608 z"
     fill="#ffffff"
     id="path14" />
  <path
     d="m 478.72242,44.46287 h -19.772 l -4.761,15.2525 h -7.525 l 19.12,-58.90622 h 6.307 l 18.796,58.90622 h -7.487 z m -17.738,-6.5136 h 15.745 l -7.812,-25.5692 z"
     fill="#ffffff"
     id="path15" />
  <path
     d="m 437.51042,59.71537 h -7.649 l -22.986,-44.0178 -0.122,44.0178 h -7.608 V 0.80915 h 7.649 l 22.986,43.93692 0.122,-43.93692 h 7.608 z"
     fill="#ffffff"
     id="path16" />
  <path
     d="m 387.55042,0.80915 0.082,39.89112 c 0,2.7512 -0.488,5.327 -1.465,7.7275 -0.977,2.4005 -2.319,4.4908 -4.027,6.2708 -1.709,1.8071 -3.743,3.2366 -6.103,4.2886 -2.359,1.025 -4.95,1.5373 -7.771,1.5373 -2.875,0 -5.492,-0.5123 -7.852,-1.5373 -2.359,-1.0249 -4.379,-2.441 -6.061,-4.2481 -1.681,-1.7801 -2.997,-3.8704 -3.947,-6.2709 -0.948,-2.4274 -1.437,-5.0167 -1.464,-7.7679 l 0.081,-39.89112 h 7.161 l 0.162,39.89112 c 0.027,1.7532 0.299,3.4389 0.813,5.0572 0.543,1.6183 1.316,3.0478 2.32,4.2886 0.976,1.2407 2.196,2.2386 3.662,2.9938 1.491,0.7553 3.2,1.1328 5.125,1.1328 1.926,0 3.621,-0.3641 5.086,-1.0923 1.465,-0.7552 2.698,-1.7667 3.702,-3.0343 0.977,-1.2408 1.723,-2.6703 2.237,-4.2886 0.516,-1.6183 0.801,-3.304 0.855,-5.0572 l 0.122,-39.89112 z"
     fill="#ffffff"
     id="path17" />
  <path
     d="m 338.68942,41.99497 c -0.352,2.7241 -1.058,5.2325 -2.115,7.5251 -1.058,2.2657 -2.428,4.2077 -4.109,5.8259 -1.709,1.6453 -3.729,2.9265 -6.062,3.8435 -2.305,0.8901 -4.882,1.335 -7.73,1.335 -2.44,0 -4.665,-0.3371 -6.672,-1.0113 -1.98,-0.7013 -3.743,-1.6588 -5.289,-2.8726 -1.572,-1.2137 -2.929,-2.6431 -4.068,-4.2885 -1.112,-1.6452 -2.034,-3.4389 -2.767,-5.3808 -0.759,-1.942 -1.329,-3.9783 -1.708,-6.1091 -0.353,-2.1308 -0.543,-4.2886 -0.57,-6.4732 v -8.2129 c 0.027,-2.1847 0.217,-4.3424 0.57,-6.4732 0.379,-2.1308 0.949,-4.1671 1.708,-6.1091 0.733,-1.9419 1.655,-3.7356 2.767,-5.3809 1.139,-1.6722 2.496,-3.1152 4.068,-4.3289 1.546,-1.2138 3.309,-2.15778 5.289,-2.83207 1.98,-0.70127 4.205,-1.0519 6.672,-1.0519 2.957,0 5.601,0.45852 7.933,1.37556 2.333,0.89006 4.34,2.15771 6.022,3.80301 1.681,1.6722 3.023,3.6681 4.027,5.9877 1.032,2.3196 1.71,4.8819 2.034,7.687 h -7.525 c -0.245,-1.7802 -0.666,-3.4389 -1.262,-4.9763 -0.596,-1.5374 -1.397,-2.886 -2.4,-4.0458 -1.004,-1.1598 -2.238,-2.0633 -3.703,-2.7106 -1.437,-0.6743 -3.146,-1.0115 -5.126,-1.0115 -1.789,0 -3.377,0.2967 -4.76,0.8901 -1.356,0.5664 -2.522,1.3485 -3.498,2.3465 -1.004,0.998 -1.845,2.1577 -2.523,3.4794 -0.651,1.3216 -1.18,2.7242 -1.587,4.2076 -0.406,1.4835 -0.705,3.0073 -0.894,4.5717 -0.163,1.5374 -0.244,3.0343 -0.244,4.4908 v 8.2938 c 0,1.4564 0.081,2.9669 0.244,4.5313 0.189,1.5373 0.488,3.0478 0.894,4.5312 0.407,1.5104 0.936,2.9264 1.587,4.248 0.651,1.3217 1.478,2.4815 2.482,3.4794 1.003,1.0249 2.183,1.834 3.539,2.4275 1.356,0.5663 2.944,0.8496 4.76,0.8496 1.98,0 3.689,-0.3102 5.126,-0.9306 1.465,-0.6203 2.699,-1.4969 3.703,-2.6297 1.003,-1.1058 1.804,-2.414 2.4,-3.9244 0.596,-1.5374 1.017,-3.1961 1.262,-4.9763 z"
     fill="#ffffff"
     id="path18" />
  <path
     d="m 237.34742,59.71537 h -7.648 l -22.987,-44.0178 -0.122,44.0178 h -7.608 V 0.80915 h 7.649 l 22.987,43.93692 0.122,-43.93692 h 7.607 z"
     fill="#ffffff"
     id="path19" />
  <path
     d="m 150.20442,0.80915 h 35.8 v 6.51372 h -14.198 v 45.9193 h 14.198 v 6.4732 h -35.8 v -6.4732 h 13.872 V 7.32287 h -13.872 z"
     fill="#ffffff"
     id="path20" />
  <path
     d="M 114.68642,59.71537 95.972324,0.80915 h 8.056096 l 13.018,43.97732 0.854,2.8726 0.895,-2.9534 13.1,-43.89652 h 8.015 l -18.674,58.90622 z"
     fill="#ffffff"
     id="path21" />
  <path
     d="m 82.709524,32.48737 h -24.7356 v 20.8762 h 28.8446 v 6.3518 h -36.3711 V 0.80915 h 36.005 v 6.39232 h -28.4785 v 18.9341 h 24.7356 z"
     fill="#ffffff"
     id="path22" />
  <path
     d="m 14.279924,32.36607 -6.59075,7.4441 v 19.9052 H 0 V 0.80915 h 7.689174 v 28.76532 l 5.73645,-7.1206 17.3718,-21.64472 h 9.1537 l -20.7079,25.77152 22.0911,33.1347 h -9.1537 z"
     fill="#ffffff"
     id="path23" />
</svg>
